<svg width="30" height="30" viewBox="0 0 30 30" fill="none" xmlns="http://www.w3.org/2000/svg">
<g id="Google">
<path id="Intersect" d="M1.53582 21.2772L6.58081 17.6336C6.29235 16.8061 6.13636 15.9208 6.13636 15C6.13636 14.0792 6.29235 13.1939 6.58081 12.3664L1.53582 8.72284C0.55186 10.6122 0 12.7423 0 15C0 17.2577 0.551859 19.3878 1.53582 21.2772Z" fill="#FBBC05"/>
<path id="Intersect_2" d="M6.58076 12.3664C7.74475 9.02741 11.0658 6.62877 14.9999 6.62877C17.1136 6.62877 19.0227 7.3371 20.5227 8.49619L24.8863 4.37498C22.2272 2.18559 18.8181 0.833313 14.9999 0.833313C9.0723 0.833313 3.97563 4.03795 1.53577 8.72282L6.58076 12.3664Z" fill="#EA4335"/>
<path id="Subtract" d="M15 29.1666C9.07073 29.1666 3.97288 25.9602 1.53381 21.2732L6.57675 17.6218C7.73704 20.9669 11.0613 23.3712 15 23.3712C16.9274 23.3712 18.6351 22.9425 19.9875 22.1364L24.7769 25.6384C22.1551 27.9407 18.6587 29.1666 15 29.1666Z" fill="#34A853"/>
<path id="Intersect_3" d="M15 12.4242H28.9773C29.1818 13.2613 29.3182 14.1628 29.3182 15C29.3182 19.6173 27.5296 23.2211 24.7769 25.6384L19.9874 22.1364C21.5534 21.203 22.643 19.7636 23.0455 17.8977H15V12.4242Z" fill="#4285F4"/>
</g>
</svg>
